<svg width="99" height="97" viewBox="0 0 99 97" fill="none" xmlns="http://www.w3.org/2000/svg">
<rect width="99" height="97" fill="white"/>
<circle cx="49.5" cy="48.5" r="46.5" fill="white"/>
<path d="M64.5378 62.3638C65.8562 62.3638 66.44 61.4033 66.6095 60.4804C66.7602 59.7271 66.7979 58.7477 66.7979 57.6366C66.7979 48.8035 63.1253 44.7731 54.4241 44.7731H42.0127L37.5303 45.0368L43.0297 40.027L47.2485 35.7518C47.6251 35.3751 47.87 34.8478 47.87 34.2639C47.87 33.1151 47.0036 32.2487 45.7983 32.2487C45.2709 32.2487 44.7624 32.4747 44.2727 32.9456L31.8802 45.3005C31.447 45.7337 31.2021 46.2987 31.2021 46.8825C31.2021 47.4475 31.447 48.0125 31.8802 48.4457L44.3104 60.8383C44.7624 61.2903 45.2709 61.4975 45.7983 61.4975C47.0036 61.4975 47.87 60.6311 47.87 59.4823C47.87 58.8984 47.6251 58.3711 47.2485 57.9944L43.0297 53.738L37.5114 48.7094L42.0127 48.973H54.1604C60.3567 48.973 62.5603 51.5156 62.5603 57.7684C62.5603 58.8231 62.4849 59.5764 62.4849 60.2921C62.4849 61.5163 63.3136 62.3638 64.5378 62.3638Z" fill="#1B2739"/>
</svg>
