<svg width="99" height="97" viewBox="0 0 99 97" fill="none" xmlns="http://www.w3.org/2000/svg">
<rect width="99" height="97" fill="white"/>
<circle cx="49.5" cy="48.5" r="46.5" fill="white"/>
<path d="M37.8956 66.4264C37.8956 66.8543 37.5487 67.2013 37.1207 67.2013L28.0688 67.2013C24.3596 67.2013 21.3528 64.1944 21.3528 60.4853L21.3528 41.3638C21.3528 40.9358 21.6997 40.5889 22.1277 40.5889L37.1207 40.5889C37.5487 40.5889 37.8956 40.9358 37.8956 41.3638L37.8956 66.4264Z" fill="#5EABF8"/>
<path d="M59.457 66.4264C59.457 66.8543 59.804 67.2013 60.232 67.2013L69.2839 67.2013C72.993 67.2013 75.9999 64.1944 75.9999 60.4853L75.9999 41.3638C75.9999 40.9358 75.6529 40.5889 75.225 40.5889L60.232 40.5889C59.804 40.5889 59.457 40.9358 59.457 41.3638L59.457 66.4264Z" fill="#5EABF8"/>
<path d="M40.4048 41.3638C40.4048 40.9358 40.7517 40.5889 41.1797 40.5889H56.9476V66.4264C56.9476 66.8543 56.6007 67.2013 56.1727 67.2013H41.1797C40.7517 67.2013 40.4048 66.8543 40.4048 66.4263V41.3638Z" fill="#5EABF8"/>
<rect x="36.5978" y="28.1135" width="25.0603" height="8.35343" rx="1" fill="#5EABF8"/>
</svg>
