<svg width="77" height="48" viewBox="0 0 77 48" fill="none" xmlns="http://www.w3.org/2000/svg">
<g clip-path="url(#clip0_107_1347)">
<rect width="77" height="48" fill=""/>
<rect x="14.1289" y="17.1611" width="4.54839" height="7.58065" rx="2.27419" fill="#4CA6FE"/>
<rect x="53.5483" y="17.1611" width="4.54839" height="7.58065" rx="2.27419" fill="#4CA6FE"/>
<rect x="33.8384" y="2" width="4.54839" height="7.58065" rx="2.27419" fill="#4CA6FE"/>
<path d="M20.9642 12.7727C20.772 12.1976 21.0824 11.5757 21.6575 11.3835V11.3835C26.6416 9.71793 32.0321 12.4081 33.6977 17.3922L35.8518 23.8382C36.1812 24.8241 35.6491 25.8904 34.6633 26.2198L31.4154 27.3051C28.6359 28.234 25.6296 26.7337 24.7007 23.9541L20.9642 12.7727Z" fill="#E85C05"/>
<path d="M46.6402 2.90096C46.9867 2.40337 47.671 2.28089 48.1685 2.6274V2.6274C52.481 5.6304 53.5424 11.5607 50.5394 15.8731L46.6556 21.4505C46.0616 22.3035 44.8885 22.5135 44.0355 21.9195L41.2254 19.9626C38.8204 18.2879 38.2284 14.9806 39.9032 12.5756L46.6402 2.90096Z" fill="#1B2739"/>
<path d="M5.23065 44.1365C4.26032 44.1365 3.41129 43.9545 2.68355 43.5906C1.96591 43.2167 1.40495 42.7113 1.00065 42.0745C0.606452 41.4276 0.409355 40.6948 0.409355 39.8761C0.409355 39.0574 0.601398 38.3297 0.985484 37.6929C1.37968 37.046 1.92043 36.5457 2.60774 36.1919C3.29505 35.8281 4.06828 35.6461 4.92742 35.6461C5.73602 35.6461 6.47387 35.8129 7.14097 36.1465C7.80806 36.4699 8.33871 36.95 8.7329 37.5868C9.1271 38.2235 9.32419 38.9968 9.32419 39.9065C9.32419 40.0075 9.31914 40.1238 9.30903 40.2552C9.29893 40.3866 9.28882 40.5078 9.27871 40.619H2.77452V39.1029H7.74742L6.65581 39.5274C6.66591 39.1534 6.59516 38.83 6.44355 38.5571C6.30204 38.2842 6.09989 38.0719 5.8371 37.9203C5.58441 37.7687 5.28624 37.6929 4.94258 37.6929C4.59892 37.6929 4.2957 37.7687 4.0329 37.9203C3.78022 38.0719 3.58312 38.2892 3.44161 38.5723C3.30011 38.8452 3.22936 39.1686 3.22936 39.5426V39.9823C3.22936 40.3866 3.31022 40.7353 3.47194 41.0284C3.64376 41.3215 3.88634 41.5489 4.19968 41.7106C4.51301 41.8623 4.88699 41.9381 5.32161 41.9381C5.72591 41.9381 6.06957 41.8825 6.35258 41.7713C6.6457 41.65 6.93376 41.4681 7.21677 41.2255L8.7329 42.8023C8.33871 43.2369 7.85355 43.5704 7.27742 43.8029C6.70129 44.0253 6.01903 44.1365 5.23065 44.1365ZM12.3557 44L16.1309 39.0423L16.0703 40.6797L12.4467 35.7826H15.6912L17.7228 38.6784L16.5099 38.739L18.6628 35.7826H21.7103L18.0867 40.5735V38.9968L21.8164 44H18.5264L16.4038 40.9071L17.6167 41.0739L15.479 44H12.3557ZM30.7485 44.1365C30.0511 44.1365 29.4548 43.9848 28.9595 43.6816C28.4642 43.3683 28.0852 42.9033 27.8224 42.2868C27.5697 41.6601 27.4434 40.8616 27.4434 39.8913C27.4434 38.9109 27.5646 38.1124 27.8072 37.4958C28.0498 36.8691 28.4137 36.4042 28.8988 36.101C29.3941 35.7977 30.0107 35.6461 30.7485 35.6461C31.4965 35.6461 32.1737 35.823 32.7801 36.1768C33.3967 36.5204 33.8819 37.0106 34.2356 37.6474C34.5995 38.2741 34.7814 39.022 34.7814 39.8913C34.7814 40.7605 34.5995 41.5135 34.2356 42.1503C33.8819 42.7871 33.3967 43.2773 32.7801 43.621C32.1737 43.9646 31.4965 44.1365 30.7485 44.1365ZM25.5785 46.9413V35.7826H28.3227V37.1774L28.3076 39.8913L28.4592 42.6203V46.9413H25.5785ZM30.1421 41.8471C30.4655 41.8471 30.7536 41.7713 31.0063 41.6197C31.2691 41.4681 31.4763 41.2457 31.6279 40.9526C31.7896 40.6595 31.8705 40.3057 31.8705 39.8913C31.8705 39.4769 31.7896 39.1231 31.6279 38.83C31.4763 38.5369 31.2691 38.3145 31.0063 38.1629C30.7536 38.0113 30.4655 37.9355 30.1421 37.9355C29.8186 37.9355 29.5255 38.0113 29.2627 38.1629C29.01 38.3145 28.8028 38.5369 28.6411 38.83C28.4895 39.1231 28.4137 39.4769 28.4137 39.8913C28.4137 40.3057 28.4895 40.6595 28.6411 40.9526C28.8028 41.2457 29.01 41.4681 29.2627 41.6197C29.5255 41.7713 29.8186 41.8471 30.1421 41.8471ZM39.001 44V32.7503H41.8816V44H39.001ZM50.7582 44.1365C49.8587 44.1365 49.0602 43.9545 48.3627 43.5906C47.6653 43.2268 47.1145 42.7265 46.7102 42.0897C46.316 41.4428 46.1189 40.7049 46.1189 39.8761C46.1189 39.0473 46.316 38.3145 46.7102 37.6777C47.1145 37.041 47.6653 36.5457 48.3627 36.1919C49.0602 35.8281 49.8587 35.6461 50.7582 35.6461C51.6578 35.6461 52.4563 35.8281 53.1537 36.1919C53.8612 36.5457 54.4121 37.041 54.8063 37.6777C55.2005 38.3145 55.3976 39.0473 55.3976 39.8761C55.3976 40.7049 55.2005 41.4428 54.8063 42.0897C54.4121 42.7265 53.8612 43.2268 53.1537 43.5906C52.4563 43.9545 51.6578 44.1365 50.7582 44.1365ZM50.7582 41.8471C51.0918 41.8471 51.3849 41.7713 51.6376 41.6197C51.9004 41.4681 52.1076 41.2457 52.2592 40.9526C52.4108 40.6494 52.4866 40.2905 52.4866 39.8761C52.4866 39.4617 52.4108 39.113 52.2592 38.83C52.1076 38.5369 51.9004 38.3145 51.6376 38.1629C51.3849 38.0113 51.0918 37.9355 50.7582 37.9355C50.4348 37.9355 50.1417 38.0113 49.8789 38.1629C49.6262 38.3145 49.419 38.5369 49.2573 38.83C49.1056 39.113 49.0298 39.4617 49.0298 39.8761C49.0298 40.2905 49.1056 40.6494 49.2573 40.9526C49.419 41.2457 49.6262 41.4681 49.8789 41.6197C50.1417 41.7713 50.4348 41.8471 50.7582 41.8471ZM59.6127 44V35.7826H62.3568V38.1781L61.9475 37.4958C62.1901 36.8792 62.5843 36.4194 63.1301 36.1161C63.6759 35.8028 64.3379 35.6461 65.1162 35.6461V38.2387C64.9848 38.2185 64.8686 38.2084 64.7675 38.2084C64.6765 38.1983 64.5754 38.1932 64.4643 38.1932C63.878 38.1932 63.403 38.3549 63.0391 38.6784C62.6752 38.9917 62.4933 39.5072 62.4933 40.2248V44H59.6127ZM73.7154 44V42.4687L73.5183 42.0897V39.2697C73.5183 38.8148 73.3768 38.4661 73.0938 38.2235C72.8209 37.9709 72.3812 37.8445 71.7747 37.8445C71.3805 37.8445 70.9813 37.9102 70.577 38.0416C70.1727 38.1629 69.829 38.3347 69.546 38.5571L68.5757 36.6013C69.0406 36.2981 69.5966 36.0656 70.2434 35.9039C70.9004 35.732 71.5524 35.6461 72.1992 35.6461C73.5334 35.6461 74.5644 35.9544 75.2921 36.571C76.03 37.1774 76.3989 38.1326 76.3989 39.4365V44H73.7154ZM71.2896 44.1365C70.6326 44.1365 70.0767 44.0253 69.6218 43.8029C69.167 43.5805 68.8183 43.2773 68.5757 42.8932C68.3432 42.5091 68.227 42.0796 68.227 41.6045C68.227 41.0991 68.3533 40.6645 68.606 40.3006C68.8688 39.9267 69.2681 39.6437 69.8038 39.4516C70.3395 39.2495 71.0318 39.1484 71.8809 39.1484H73.8215V40.6494H72.2751C71.8101 40.6494 71.4816 40.7252 71.2896 40.8768C71.1076 41.0284 71.0167 41.2305 71.0167 41.4832C71.0167 41.7359 71.1127 41.9381 71.3047 42.0897C71.4968 42.2413 71.7596 42.3171 72.0931 42.3171C72.4064 42.3171 72.6895 42.2413 72.9421 42.0897C73.2049 41.928 73.397 41.6854 73.5183 41.3619L73.9125 42.4232C73.7609 42.9892 73.4627 43.4188 73.018 43.7119C72.5833 43.9949 72.0072 44.1365 71.2896 44.1365Z" fill="#1B2739"/>
</g>
<defs>
<clipPath id="clip0_107_1347">
<rect width="77" height="48" fill="white"/>
</clipPath>
</defs>
</svg>
