<svg width="99" height="97" viewBox="0 0 99 97" fill="none" xmlns="http://www.w3.org/2000/svg">
<rect width="99" height="97" fill="white"/>
<circle cx="49.5" cy="48.5" r="46.5" fill="white"/>
<path d="M27.4736 44.8122C27.4736 53.997 35.1958 63.0743 47.1984 70.8179C47.8652 71.2481 48.6826 71.6783 49.2418 71.6783C49.8011 71.6783 50.6185 71.2481 51.2853 70.8179C63.3094 63.0743 71.01 53.997 71.01 44.8122C71.01 36.875 65.525 31.3684 58.4912 31.3684C54.3827 31.3684 51.1777 33.2398 49.2418 36.0791C47.3489 33.2613 44.1224 31.3684 40.014 31.3684C32.9587 31.3684 27.4736 36.875 27.4736 44.8122ZM31.9047 44.7907C31.9047 39.3702 35.4754 35.6919 40.2721 35.6919C44.1439 35.6919 46.3165 38.0365 47.6716 40.08C48.2739 40.9619 48.6826 41.2415 49.2418 41.2415C49.8226 41.2415 50.1883 40.9404 50.8121 40.08C52.2747 38.0796 54.3612 35.6919 58.2115 35.6919C63.0298 35.6919 66.6005 39.3702 66.6005 44.7907C66.6005 52.3622 58.7278 60.7512 49.6505 66.774C49.4569 66.9031 49.3279 66.9891 49.2418 66.9891C49.1558 66.9891 49.0267 66.9031 48.8546 66.774C39.7774 60.7512 31.9047 52.3622 31.9047 44.7907Z" fill="#D42F21"/>
</svg>
